<svg width="120" height="120" viewBox="0 0 120 120" xmlns="http://www.w3.org/2000/svg">
  <defs>
    <!-- Premium gradient -->
    <linearGradient id="iconGradient" x1="0%" y1="0%" x2="100%" y2="100%">
      <stop offset="0%" style="stop-color:#f43f5e;stop-opacity:1" />
      <stop offset="50%" style="stop-color:#ec4899;stop-opacity:1" />
      <stop offset="100%" style="stop-color:#8b5cf6;stop-opacity:1" />
    </linearGradient>
    
    <!-- Elegant shadow -->
    <filter id="iconShadow" x="-20%" y="-20%" width="140%" height="140%">
      <feDropShadow dx="3" dy="6" stdDeviation="5" flood-color="#f43f5e" flood-opacity="0.3"/>
    </filter>
    
    <!-- Subtle glow -->
    <filter id="iconGlow" x="-50%" y="-50%" width="200%" height="200%">
      <feGaussianBlur stdDeviation="3" result="coloredBlur"/>
      <feMerge> 
        <feMergeNode in="coloredBlur"/>
        <feMergeNode in="SourceGraphic"/>
      </feMerge>
    </filter>
  </defs>
  
  <!-- Background circle with premium gradient -->
  <circle cx="60" cy="60" r="50" fill="url(#iconGradient)" opacity="0.1" filter="url(#iconGlow)"/>
  <circle cx="60" cy="60" r="45" fill="none" stroke="url(#iconGradient)" stroke-width="2" opacity="0.3"/>
  
  <!-- Main logo icon -->
  <g filter="url(#iconShadow)">
    <!-- Stylized A with premium design -->
    <path d="M35 85 L60 25 L85 85 M45 65 L75 65" 
          stroke="url(#iconGradient)" 
          stroke-width="5" 
          fill="none" 
          stroke-linecap="round" 
          stroke-linejoin="round"/>
    
    <!-- Beauty elements -->
    <circle cx="88" cy="35" r="4" fill="url(#iconGradient)" opacity="0.8"/>
    <circle cx="32" cy="40" r="3" fill="url(#iconGradient)" opacity="0.6"/>
    
    <!-- Hijab-inspired flowing curves -->
    <path d="M25 45 Q35 30 50 40 Q40 50 25 45" 
          fill="url(#iconGradient)" 
          opacity="0.4"/>
    <path d="M95 50 Q85 35 70 45 Q80 55 95 50" 
          fill="url(#iconGradient)" 
          opacity="0.3"/>
  </g>
  
  <!-- Premium accent dots -->
  <circle cx="60" cy="95" r="2" fill="url(#iconGradient)" opacity="0.7"/>
  <circle cx="25" cy="60" r="1.5" fill="url(#iconGradient)" opacity="0.5"/>
  <circle cx="95" cy="75" r="1.5" fill="url(#iconGradient)" opacity="0.6"/>
</svg>
